<svg width="26" height="32" viewBox="0 0 26 32" fill="none" xmlns="http://www.w3.org/2000/svg">
<path d="M21.3998 11.6599C21.4992 11.5459 21.5844 11.4318 21.6838 11.3178C21.6696 11.2893 21.6554 11.275 21.6412 11.2465C19.7952 11.4746 17.9349 11.5316 16.0463 11.5316C16.0463 11.4318 16.0463 11.3606 16.0605 11.2893C16.1883 10.9044 16.3019 10.5196 16.4439 10.149C16.8131 9.16547 17.1681 8.18195 17.5799 7.22694C18.0059 6.21491 18.4745 5.21714 18.9715 4.23362C19.4402 3.27861 20.0082 2.38061 20.7892 1.65366C21.2862 1.18328 21.8684 0.855445 22.5784 0.91246C23.4446 0.969476 24.0126 1.66792 23.6292 2.55166C23.4304 3.00778 23.1748 3.4354 22.9334 3.86302C22.8198 4.09108 22.7346 4.31914 22.905 4.5472C23.0612 4.76101 23.26 4.90355 23.5156 4.93206C24.5806 5.0746 25.319 4.43317 25.5746 3.46391C25.6882 3.02204 25.7024 2.5374 25.674 2.08128C25.6456 1.51112 25.3616 1.04075 24.8788 0.684398C24.2966 0.256781 23.6008 0.157004 22.9192 0.0999883C22.0814 0.0287188 21.2578 0.114242 20.4484 0.39932C19.7384 0.65589 19.0709 0.98373 18.4887 1.48262C17.9207 1.9815 17.4521 2.55166 17.0119 3.16458C16.3587 4.04832 15.8617 5.01758 15.4215 6.01536C15.0807 6.79932 14.7967 7.62605 14.4843 8.43852C14.1861 9.23674 13.9021 10.0492 13.5755 10.8332C13.3199 11.4603 13.5045 11.4461 12.7093 11.3748C11.8431 11.3036 10.9769 11.275 10.1106 11.218C9.89764 11.2038 9.75564 11.3036 9.67044 11.4746C9.45743 11.9592 9.25863 12.4439 9.05983 12.9285C8.74743 13.6697 8.43502 14.4109 8.09422 15.1236C7.73921 15.8648 7.32741 16.5917 6.9866 17.3472C6.873 17.5895 6.7594 17.8889 6.8872 18.1882C6.9156 18.2737 6.9724 18.345 7.015 18.4162C7.08601 18.3592 7.18541 18.3165 7.22801 18.2452C7.63981 17.5895 8.03742 16.9196 8.42082 16.2497C8.87523 15.4657 9.28703 14.6675 9.75564 13.8978C9.98284 13.5129 10.281 13.1851 10.7354 13.0283C11.3177 12.843 11.8999 12.9 12.4963 12.9285C12.6383 12.9285 12.6951 13.014 12.6383 13.1566C12.3969 13.7837 12.1839 14.4109 11.9283 15.0381C11.5733 15.9218 11.2183 16.7913 10.8633 17.675C10.5224 18.5303 10.1958 19.3855 9.82664 20.2265C9.34383 21.3383 8.86103 22.4358 8.33562 23.5334C7.79601 24.6595 7.25641 25.7998 6.66 26.8973C6.2482 27.667 5.79379 28.4225 5.28258 29.1494C4.67198 30.0189 3.94777 30.7459 2.86855 31.0309C2.44255 31.145 1.90294 31.0309 1.74674 30.7316C1.59054 30.4323 1.50534 30.0902 1.63314 29.7481C1.80354 29.3347 1.98814 28.9356 2.13015 28.508C2.18695 28.337 2.18695 28.1089 2.11595 27.9521C1.90294 27.4817 1.07933 27.3249 0.695928 27.667C0.482926 27.8523 0.326724 28.1089 0.170522 28.337C0.0853211 28.4652 0.0285204 28.6078 -0.0424805 28.7503C-0.0424805 29.2635 -0.0424805 29.7623 -0.0424805 30.2755C0.000120044 30.3468 0.0285204 30.418 0.0711209 30.475C0.241523 30.8314 0.454526 31.1592 0.781129 31.373C1.81774 32.0715 2.96796 32.1285 4.11817 31.8434C5.16898 31.5868 6.04939 30.9882 6.8304 30.2612C7.73921 29.4203 8.50602 28.4795 9.17343 27.4532C9.86924 26.4127 10.4798 25.3294 11.0479 24.2033C11.4881 23.3338 11.8857 22.4644 12.2691 21.5806C12.6099 20.7966 12.9223 19.9984 13.2347 19.2002C13.4619 18.6158 13.6607 18.0029 13.8737 17.4042C14.1293 16.6915 14.3991 15.9646 14.6547 15.2519C14.9103 14.5249 15.1375 13.7837 15.3931 13.0568C15.4357 12.9427 15.4925 12.843 15.6629 12.8287C17.0403 12.7717 18.4177 12.7432 19.781 12.4581C20.4484 12.3298 20.9738 12.1018 21.3998 11.6599Z" fill="white"/>
</svg>
