<svg
  width="230"
  height="20"
  viewBox="0 0 230 20"
  fill="none"
  xmlns="http://www.w3.org/2000/svg"
>
  <path
    d="M3.06645 6.78191H2.83508V16.5414H0.142822V1.86012H3.92881L7.2731 11.6196H7.50447V1.86012H10.1967V16.5414H6.41074L3.06645 6.78191Z"
    fill="black"
  />
  <path
    d="M17.7815 16.7938C16.9402 16.7938 16.183 16.6676 15.5099 16.4152C14.8369 16.1487 14.262 15.7701 13.7852 15.2794C13.3225 14.7886 12.9649 14.1926 12.7125 13.4915C12.4601 12.7904 12.3339 11.9982 12.3339 11.1148C12.3339 10.2314 12.4601 9.43912 12.7125 8.73801C12.9649 8.0369 13.3225 7.44095 13.7852 6.95018C14.262 6.4594 14.8369 6.08781 15.5099 5.83541C16.183 5.56899 16.9402 5.43578 17.7815 5.43578C18.6229 5.43578 19.3801 5.56899 20.0531 5.83541C20.7262 6.08781 21.2941 6.4594 21.7568 6.95018C22.2336 7.44095 22.5981 8.0369 22.8505 8.73801C23.1029 9.43912 23.2291 10.2314 23.2291 11.1148C23.2291 11.9982 23.1029 12.7904 22.8505 13.4915C22.5981 14.1926 22.2336 14.7886 21.7568 15.2794C21.2941 15.7701 20.7262 16.1487 20.0531 16.4152C19.3801 16.6676 18.6229 16.7938 17.7815 16.7938ZM17.7815 14.4801C18.4826 14.4801 19.0295 14.2627 19.4221 13.8281C19.8147 13.3934 20.0111 12.7764 20.0111 11.9771V10.2524C20.0111 9.45314 19.8147 8.83616 19.4221 8.40147C19.0295 7.96679 18.4826 7.74944 17.7815 7.74944C17.0804 7.74944 16.5336 7.96679 16.1409 8.40147C15.7483 8.83616 15.552 9.45314 15.552 10.2524V11.9771C15.552 12.7764 15.7483 13.3934 16.1409 13.8281C16.5336 14.2627 17.0804 14.4801 17.7815 14.4801Z"
    fill="black"
  />
  <path
    d="M32.2232 14.5642H32.097C31.8586 15.1812 31.48 15.707 30.9612 16.1417C30.4564 16.5764 29.7693 16.7938 28.8999 16.7938C28.3811 16.7938 27.9043 16.7096 27.4697 16.5414C27.035 16.3591 26.6634 16.0926 26.3549 15.7421C26.0464 15.3915 25.801 14.9639 25.6187 14.4591C25.4505 13.9543 25.3663 13.3723 25.3663 12.7133V5.68818H28.4792V12.2926C28.4792 13.6948 29.0892 14.396 30.3091 14.396C30.5475 14.396 30.7789 14.3679 31.0032 14.3118C31.2416 14.2417 31.4449 14.1436 31.6132 14.0174C31.7955 13.8771 31.9427 13.7089 32.0549 13.5126C32.1671 13.3162 32.2232 13.0849 32.2232 12.8185V5.68818H35.3361V16.5414H32.2232V14.5642Z"
    fill="black"
  />
  <path
    d="M38.0622 16.5414V5.68818H41.1751V7.66531H41.3013C41.4275 7.35682 41.5818 7.06937 41.7641 6.80294C41.9464 6.53652 42.1637 6.30516 42.4161 6.10885C42.6825 5.89851 42.984 5.73726 43.3205 5.62508C43.6711 5.49888 44.0637 5.43578 44.4984 5.43578C45.0172 5.43578 45.494 5.52693 45.9287 5.70921C46.3633 5.87748 46.7349 6.13689 47.0434 6.48745C47.3519 6.838 47.5903 7.26568 47.7585 7.77048C47.9408 8.27527 48.032 8.85719 48.032 9.51624V16.5414H44.9191V9.9369C44.9191 8.53468 44.3091 7.83358 43.0892 7.83358C42.8508 7.83358 42.6124 7.86863 42.374 7.93874C42.1497 7.99483 41.9464 8.09299 41.7641 8.23321C41.5818 8.35941 41.4345 8.52066 41.3224 8.71697C41.2242 8.91328 41.1751 9.14465 41.1751 9.41107V16.5414H38.0622Z"
    fill="black"
  />
  <path
    d="M63.454 19.4439L70.2057 0.556061H73.0031L66.2514 19.4439H63.454Z"
    fill="black"
  />
  <path
    d="M75.8975 0.976727H79.0104V7.66531H79.1366C79.2628 7.35682 79.417 7.06937 79.5993 6.80294C79.7816 6.53652 79.9989 6.30516 80.2513 6.10885C80.5178 5.89851 80.8192 5.73726 81.1558 5.62508C81.5063 5.49888 81.899 5.43578 82.3336 5.43578C82.8525 5.43578 83.3292 5.52693 83.7639 5.70921C84.1986 5.87748 84.5702 6.13689 84.8787 6.48745C85.1872 6.838 85.4255 7.26568 85.5938 7.77048C85.7761 8.27527 85.8672 8.85719 85.8672 9.51624V16.5414H82.7543V9.9369C82.7543 8.53468 82.1443 7.83358 80.9244 7.83358C80.686 7.83358 80.4477 7.86863 80.2093 7.93874C79.9849 7.99483 79.7816 8.09299 79.5993 8.23321C79.417 8.35941 79.2698 8.52066 79.1576 8.71697C79.0595 8.91328 79.0104 9.14465 79.0104 9.41107V16.5414H75.8975V0.976727Z"
    fill="black"
  />
  <path
    d="M94.9244 4.84685C95.8638 4.84685 96.6771 5.0712 97.3642 5.51991C98.0513 5.96862 98.5771 6.63468 98.9417 7.51808C99.3203 8.38745 99.5096 9.47417 99.5096 10.7782C99.5096 12.7413 99.103 14.2277 98.2897 15.2373C97.4764 16.2469 96.4107 16.7517 95.0926 16.7517C94.2793 16.7517 93.6063 16.5904 93.0734 16.2679C92.5406 15.9454 92.1129 15.5458 91.7904 15.069H91.7063L91.4328 16.5414H88.7826V8.69594C88.7826 8.21919 88.6985 7.89668 88.5302 7.72841C88.362 7.56014 88.1587 7.47601 87.9203 7.47601C87.8221 7.47601 87.7099 7.49003 87.5837 7.51808C87.4576 7.5321 87.3664 7.55313 87.3103 7.58118V5.12028C87.3804 5.07822 87.4996 5.03615 87.6679 4.99408C87.8362 4.95202 88.0114 4.91696 88.1937 4.88892C88.39 4.86087 88.5653 4.84685 88.7195 4.84685C89.4207 4.84685 89.9886 4.97305 90.4232 5.22545C90.8579 5.46383 91.1945 5.91254 91.4328 6.57158H91.559C91.8815 6.12287 92.3092 5.72324 92.8421 5.37268C93.3749 5.02213 94.069 4.84685 94.9244 4.84685ZM94.083 7.30774C93.5081 7.30774 93.0454 7.42693 92.6948 7.66531C92.3443 7.88966 92.0919 8.23321 91.9376 8.69594C91.7834 9.14465 91.7063 9.71956 91.7063 10.4207V10.7572C91.7063 11.865 91.8745 12.7203 92.2111 13.3233C92.5616 13.9122 93.1996 14.2067 94.1251 14.2067C94.8262 14.2067 95.3661 13.9192 95.7447 13.3443C96.1373 12.7554 96.3336 11.886 96.3336 10.7362C96.3336 9.5583 96.1373 8.69594 95.7447 8.14907C95.352 7.58819 94.7982 7.30774 94.083 7.30774Z"
    fill="black"
  />
  <path
    d="M101.946 14.1225H105.143V8.10701H101.735V5.68818H105.143V4.11069C105.143 3.18522 105.409 2.43503 105.942 1.86012C106.489 1.27119 107.33 0.976727 108.466 0.976727H112.147V3.39555H108.256V5.68818H112.147V8.10701H108.256V14.1225H111.663V16.5414H101.946V14.1225Z"
    fill="black"
  />
  <path
    d="M114.599 19.4439L121.351 0.556061H124.148L117.397 19.4439H114.599Z"
    fill="black"
  />
  <path
    d="M141.623 3.32879L136.174 6.96092H134.959C134.511 6.96092 134.148 7.32375 134.148 7.77135V12.2287C134.148 12.6763 134.511 13.0391 134.959 13.0391H136.174L141.623 16.6712C141.892 16.8507 142.253 16.6577 142.253 16.3341V3.66594C142.253 3.3423 141.892 3.14926 141.623 3.32879Z"
    fill="black"
  />
  <path
    d="M146.513 2.38383C146.22 2.22041 145.85 2.32594 145.687 2.61928C145.523 2.91251 145.629 3.28269 145.922 3.44593C148.3 4.7697 149.777 7.2811 149.777 10C149.777 12.719 148.3 15.2304 145.922 16.5542C145.629 16.7174 145.523 17.0876 145.687 17.3808C145.798 17.5805 146.005 17.6931 146.218 17.6931C146.318 17.6931 146.42 17.6684 146.513 17.6163C149.277 16.0781 150.993 13.1597 150.993 10C150.993 6.84037 149.277 3.92197 146.513 2.38383Z"
    fill="black"
  />
  <path
    d="M147.954 10.0001C147.954 7.94147 146.836 6.04153 145.036 5.04175C144.743 4.87864 144.373 4.98448 144.209 5.27801C144.047 5.57143 144.152 5.94143 144.446 6.10446C145.86 6.88995 146.738 8.38269 146.738 10.0001C146.738 11.6175 145.86 13.1102 144.446 13.8957C144.152 14.0587 144.047 14.4287 144.209 14.7221C144.321 14.9222 144.528 15.0349 144.742 15.0349C144.841 15.0349 144.943 15.0103 145.036 14.9584C146.836 13.9586 147.954 12.0587 147.954 10.0001Z"
    fill="black"
  />
  <path
    d="M143.562 7.6987C143.269 7.53477 142.898 7.63974 142.735 7.93267C142.571 8.22569 142.676 8.59598 142.969 8.7598C143.419 9.01158 143.699 9.48684 143.699 10.0001C143.699 10.5133 143.419 10.9886 142.969 11.2403C142.676 11.4042 142.571 11.7745 142.735 12.0675C142.846 12.2666 143.053 12.3788 143.266 12.3788C143.366 12.3788 143.468 12.3539 143.562 12.3015C144.396 11.835 144.915 10.9533 144.915 10.0001C144.915 9.0469 144.396 8.16516 143.562 7.6987Z"
    fill="black"
  />
  <path
    d="M163.896 2.09149H166.188L164.989 8.94834H160.993L163.896 2.09149Z"
    fill="black"
  />
  <path
    d="M178.358 11.5144H174.656V17.6561H171.48V2.97489H174.656V8.92731H178.358V2.97489H181.534V17.6561H178.358V11.5144Z"
    fill="black"
  />
  <path
    d="M189.119 17.9085C188.278 17.9085 187.52 17.7823 186.847 17.5299C186.174 17.2635 185.599 16.8849 185.123 16.3941C184.66 15.9033 184.302 15.3074 184.05 14.6063C183.798 13.9052 183.671 13.1129 183.671 12.2295C183.671 11.3461 183.798 10.5539 184.05 9.85277C184.302 9.15166 184.66 8.55572 185.123 8.06494C185.599 7.57417 186.174 7.20258 186.847 6.95018C187.52 6.68376 188.278 6.55055 189.119 6.55055C189.96 6.55055 190.718 6.68376 191.391 6.95018C192.064 7.20258 192.632 7.57417 193.094 8.06494C193.571 8.55572 193.936 9.15166 194.188 9.85277C194.44 10.5539 194.567 11.3461 194.567 12.2295C194.567 13.1129 194.44 13.9052 194.188 14.6063C193.936 15.3074 193.571 15.9033 193.094 16.3941C192.632 16.8849 192.064 17.2635 191.391 17.5299C190.718 17.7823 189.96 17.9085 189.119 17.9085ZM189.119 15.5949C189.82 15.5949 190.367 15.3775 190.76 14.9428C191.152 14.5081 191.349 13.8912 191.349 13.0919V11.3672C191.349 10.5679 191.152 9.95093 190.76 9.51624C190.367 9.08155 189.82 8.86421 189.119 8.86421C188.418 8.86421 187.871 9.08155 187.478 9.51624C187.086 9.95093 186.889 10.5679 186.889 11.3672V13.0919C186.889 13.8912 187.086 14.5081 187.478 14.9428C187.871 15.3775 188.418 15.5949 189.119 15.5949Z"
    fill="black"
  />
  <path
    d="M196.914 15.2373H200.111V9.22177H196.704V6.80295H200.111V5.22545C200.111 4.29999 200.378 3.5498 200.91 2.97489C201.457 2.38596 202.299 2.09149 203.434 2.09149H207.115V4.51032H203.224V6.80295H207.115V9.22177H203.224V15.2373H206.632V17.6561H196.914V15.2373Z"
    fill="black"
  />
  <path
    d="M209.526 15.2373H212.723V9.22177H209.316V6.80295H212.723V5.22545C212.723 4.29999 212.989 3.5498 213.522 2.97489C214.069 2.38596 214.91 2.09149 216.046 2.09149H219.727V4.51032H215.836V6.80295H219.727V9.22177H215.836V15.2373H219.243V17.6561H209.526V15.2373Z"
    fill="black"
  />
  <path
    d="M225.861 2.09149H229.857L226.954 8.94834H224.662L225.861 2.09149Z"
    fill="black"
  />
</svg>
