<svg width="1180" height="717" viewBox="0 0 1180 717" fill="none" xmlns="http://www.w3.org/2000/svg">
<path d="M218.705 255.742H136.471V98.7495C136.471 82.3026 127.5 71.8364 109.557 71.8364C93.1106 71.8364 84.1396 82.3026 84.1396 95.7591V249.762C84.1396 272.189 91.6155 282.655 111.053 293.121L150.675 310.316C195.53 329.753 223.19 352.181 223.19 412.735V612.34C223.19 677.38 179.83 717.002 112.548 717.002C43.7701 717.002 1.90533 681.118 1.90533 621.311V427.687H84.8872V616.078C84.8872 633.272 93.8582 645.234 111.8 645.234C128.995 645.234 138.713 633.272 138.713 618.321V430.677C138.713 406.007 128.247 393.298 108.062 383.579L68.4403 367.132C22.0901 349.19 0.410156 320.782 0.410156 264.713V98.7495C0.410156 43.4282 36.2942 0.815918 111.053 0.815918C182.073 0.815918 218.705 36.7 218.705 93.5164V255.742Z" fill="black"/>
<path d="M453.207 5.30141V77.8171H387.419V711.769H304.438V77.8171H237.903V6.04899L453.207 5.30141Z" fill="black"/>
<path d="M582.691 0.815918C655.206 0.815918 694.081 41.1855 694.081 116.691V600.379C694.081 675.885 654.459 717.002 581.943 717.002C510.175 717.002 471.301 675.885 471.301 600.379V116.691C471.301 41.1855 510.175 0.815918 582.691 0.815918Z" fill="black"/>
<path d="M969.525 711.769H885.795L861.125 439.648H824.493V711.769H741.512V5.30141H854.397C920.932 5.30141 961.301 39.6903 961.301 109.216V326.763C961.301 361.899 949.34 386.569 932.893 403.016L969.525 711.769ZM825.241 369.375H842.435C864.863 369.375 876.824 356.666 876.824 329.005V117.439C876.824 91.2736 864.863 77.8171 842.435 77.8171H825.241V369.375Z" fill="black"/>
<path d="M1090.97 639.253H1179.18V711.769H1007.98V5.30141H1177.69V77.8171H1090.97V311.063H1171.71V382.084H1090.97V639.253Z" fill="black"/>
</svg>