<svg width="73" height="40" viewBox="0 0 73 40" fill="none" xmlns="http://www.w3.org/2000/svg">
<rect width="73" height="40" rx="20" fill="white"/>
<path d="M17.176 25V15.228H20.83C21.7633 15.228 22.4727 15.4893 22.958 16.012C23.4527 16.5347 23.7 17.2533 23.7 18.168C23.7 19.0827 23.4527 19.8013 22.958 20.324C22.4727 20.8467 21.7633 21.108 20.83 21.108H18.744V25H17.176ZM18.744 19.806H20.592C21.5627 19.806 22.048 19.358 22.048 18.462V17.86C22.048 16.9733 21.5627 16.53 20.592 16.53H18.744V19.806ZM31.0025 25C30.5639 25 30.2325 24.888 30.0085 24.664C29.7939 24.44 29.6632 24.146 29.6165 23.782H29.5465C29.4065 24.2207 29.1499 24.5613 28.7765 24.804C28.4125 25.0467 27.9459 25.168 27.3765 25.168C26.6392 25.168 26.0512 24.9767 25.6125 24.594C25.1739 24.202 24.9545 23.6653 24.9545 22.984C24.9545 22.284 25.2112 21.752 25.7245 21.388C26.2472 21.0147 27.0452 20.828 28.1185 20.828H29.5045V20.268C29.5045 19.288 28.9865 18.798 27.9505 18.798C27.4839 18.798 27.1059 18.8913 26.8165 19.078C26.5272 19.2553 26.2845 19.4933 26.0885 19.792L25.1785 19.05C25.3839 18.658 25.7292 18.322 26.2145 18.042C26.6999 17.7527 27.3252 17.608 28.0905 17.608C29.0052 17.608 29.7239 17.8273 30.2465 18.266C30.7692 18.7047 31.0305 19.3393 31.0305 20.17V23.796H31.9405V25H31.0025ZM27.8105 24.048C28.3052 24.048 28.7112 23.936 29.0285 23.712C29.3459 23.488 29.5045 23.1987 29.5045 22.844V21.794H28.1465C27.0452 21.794 26.4945 22.1253 26.4945 22.788V23.068C26.4945 23.3947 26.6112 23.642 26.8445 23.81C27.0779 23.9687 27.3999 24.048 27.8105 24.048ZM37.9271 23.768H37.8571C37.7824 23.9547 37.6844 24.1367 37.5631 24.314C37.4511 24.482 37.3111 24.6313 37.1431 24.762C36.9751 24.8833 36.7791 24.9813 36.5551 25.056C36.3311 25.1307 36.0697 25.168 35.7711 25.168C35.0431 25.168 34.4551 24.93 34.0071 24.454C33.5591 23.978 33.3351 23.3013 33.3351 22.424V17.776H34.8611V22.2C34.8611 23.348 35.3604 23.922 36.3591 23.922C36.5551 23.922 36.7464 23.8987 36.9331 23.852C37.1197 23.796 37.2877 23.7167 37.4371 23.614C37.5864 23.5113 37.7031 23.3853 37.7871 23.236C37.8804 23.0773 37.9271 22.8907 37.9271 22.676V17.776H39.4531V25H37.9271V23.768ZM44.5576 25.168C43.7736 25.168 43.0969 25.042 42.5276 24.79C41.9676 24.538 41.5149 24.202 41.1696 23.782L42.1076 22.942C42.4249 23.2873 42.7796 23.5533 43.1716 23.74C43.5729 23.9173 44.0443 24.006 44.5856 24.006C45.0803 24.006 45.4769 23.922 45.7756 23.754C46.0836 23.586 46.2376 23.3247 46.2376 22.97C46.2376 22.8207 46.2096 22.6947 46.1536 22.592C46.0976 22.4893 46.0183 22.4053 45.9156 22.34C45.8129 22.2747 45.6916 22.2233 45.5516 22.186C45.4209 22.1487 45.2809 22.1207 45.1316 22.102L43.9836 21.92C43.7036 21.8827 43.4189 21.822 43.1296 21.738C42.8403 21.654 42.5789 21.5373 42.3456 21.388C42.1216 21.2293 41.9349 21.0287 41.7856 20.786C41.6456 20.5433 41.5756 20.2353 41.5756 19.862C41.5756 19.1247 41.8556 18.5647 42.4156 18.182C42.9849 17.7993 43.7316 17.608 44.6556 17.608C45.3276 17.608 45.9063 17.7107 46.3916 17.916C46.8863 18.112 47.2969 18.3873 47.6236 18.742L46.7696 19.638C46.5829 19.4233 46.3169 19.2273 45.9716 19.05C45.6263 18.8633 45.1689 18.77 44.5996 18.77C43.5823 18.77 43.0736 19.092 43.0736 19.736C43.0736 20.044 43.1809 20.2587 43.3956 20.38C43.6196 20.492 43.8809 20.5667 44.1796 20.604L45.3276 20.786C45.6169 20.8327 45.9016 20.8933 46.1816 20.968C46.4709 21.0427 46.7276 21.1593 46.9516 21.318C47.1849 21.4673 47.3716 21.6633 47.5116 21.906C47.6609 22.1487 47.7356 22.4567 47.7356 22.83C47.7356 23.558 47.4509 24.132 46.8816 24.552C46.3216 24.9627 45.5469 25.168 44.5576 25.168ZM52.8121 25.168C52.2615 25.168 51.7668 25.0793 51.3281 24.902C50.8895 24.7247 50.5208 24.4727 50.2221 24.146C49.9235 23.8193 49.6948 23.4273 49.5361 22.97C49.3775 22.5033 49.2981 21.9807 49.2981 21.402C49.2981 20.8233 49.3775 20.3007 49.5361 19.834C49.7041 19.3673 49.9328 18.9707 50.2221 18.644C50.5208 18.308 50.8801 18.0513 51.3001 17.874C51.7201 17.6967 52.1868 17.608 52.7001 17.608C53.2041 17.608 53.6615 17.6967 54.0721 17.874C54.4828 18.042 54.8328 18.2847 55.1221 18.602C55.4115 18.9193 55.6308 19.2973 55.7801 19.736C55.9388 20.1747 56.0181 20.66 56.0181 21.192V21.766H50.8381V22.004C50.8381 22.5733 51.0155 23.04 51.3701 23.404C51.7248 23.7587 52.2148 23.936 52.8401 23.936C53.3068 23.936 53.7035 23.838 54.0301 23.642C54.3661 23.4367 54.6368 23.166 54.8421 22.83L55.7941 23.67C55.5515 24.09 55.1781 24.4447 54.6741 24.734C54.1795 25.0233 53.5588 25.168 52.8121 25.168ZM52.7001 18.77C52.4295 18.77 52.1775 18.8167 51.9441 18.91C51.7201 19.0033 51.5241 19.1387 51.3561 19.316C51.1975 19.484 51.0715 19.6847 50.9781 19.918C50.8848 20.1513 50.8381 20.408 50.8381 20.688V20.786H54.4641V20.646C54.4641 20.0767 54.3008 19.624 53.9741 19.288C53.6568 18.9427 53.2321 18.77 52.7001 18.77Z" fill="black"/>
</svg>
