<svg width="96" height="96" viewBox="0 0 96 96" fill="none" xmlns="http://www.w3.org/2000/svg">
<g clip-path="url(#clip0_1_825)">
<path d="M44 80C40.8174 80 37.7652 78.7357 35.5147 76.4853C33.2643 74.2348 32 71.1826 32 68V24L52 44" stroke="white" stroke-width="4" stroke-linecap="round" stroke-linejoin="round"/>
<path d="M52 16C55.1826 16 58.2348 17.2643 60.4853 19.5147C62.7357 21.7652 64 24.8174 64 28V72L44 52" stroke="white" stroke-width="4" stroke-linecap="round" stroke-linejoin="round"/>
<path d="M16 28C16 24.8174 17.2643 21.7652 19.5147 19.5147C21.7652 17.2643 24.8174 16 28 16H68C71.1826 16 74.2348 17.2643 76.4853 19.5147C78.7357 21.7652 80 24.8174 80 28V68C80 71.1826 78.7357 74.2348 76.4853 76.4853C74.2348 78.7357 71.1826 80 68 80H28C24.8174 80 21.7652 78.7357 19.5147 76.4853C17.2643 74.2348 16 71.1826 16 68V28Z" stroke="white" stroke-width="4" stroke-linecap="round" stroke-linejoin="round"/>
</g>
<defs>
<clipPath id="clip0_1_825">
<rect width="96" height="96" fill="white"/>
</clipPath>
</defs>
</svg>
